<?xml version="1.0" encoding="utf-8"?>
<!-- Generator: Adobe Illustrator 22.1.0, SVG Export Plug-In . SVG Version: 6.00 Build 0)  -->
<svg version="1.1" id="Layer_2" xmlns="http://www.w3.org/2000/svg" xmlns:xlink="http://www.w3.org/1999/xlink" x="0px" y="0px"
	 viewBox="0 0 20 20" style="enable-background:new 0 0 20 20;" xml:space="preserve">
<circle cx="7" cy="17" r="2"/>
<circle cx="15" cy="17" r="2"/>
<path d="M20,4.4V5l-1.8,6.3c-0.1,0.4-0.5,0.7-1,0.7H6.7c-0.4,0-0.8-0.3-1-0.7L3.3,3.9C3.1,3.3,2.6,3,2.1,3H0.4C0.2,3,0,2.8,0,2.6
	V1.4C0,1.2,0.2,1,0.4,1h2.5c1,0,1.8,0.6,2.1,1.6L5.1,3l2.3,6.8c0,0.1,0.2,0.2,0.3,0.2h8.6c0.1,0,0.3-0.1,0.3-0.2l1.3-4.4
	C17.9,5.2,17.7,5,17.5,5H9.4C9.2,5,9,4.8,9,4.6V3.4C9,3.2,9.2,3,9.4,3h9.2C19.4,3,20,3.6,20,4.4z"/>
</svg>
