<?xml version="1.0" encoding="iso-8859-1"?>
<!-- Generator: Adobe Illustrator 22.1.0, SVG Export Plug-In . SVG Version: 6.00 Build 0)  -->
<svg version="1.1" id="Layer_1" xmlns="http://www.w3.org/2000/svg" xmlns:xlink="http://www.w3.org/1999/xlink" x="0px" y="0px"
	 viewBox="0 0 20 20" style="enable-background:new 0 0 20 20;" xml:space="preserve">
<path d="M17.71,17.71L17.71,17.71c-0.387,0.387-1.013,0.387-1.4,0L10,11.4l-6.31,6.31c-0.387,0.387-1.013,0.387-1.4,0l0,0
	c-0.387-0.387-0.387-1.013,0-1.4L8.6,10L2.29,3.69c-0.387-0.387-0.387-1.013,0-1.4l0,0c0.387-0.387,1.013-0.387,1.4,0L10,8.6
	l6.31-6.31c0.387-0.387,1.013-0.387,1.4,0l0,0c0.387,0.387,0.387,1.013,0,1.4L11.4,10l6.31,6.31
	C18.097,16.697,18.097,17.323,17.71,17.71z"/>
</svg>
