<?xml version="1.0" encoding="iso-8859-1"?>
<!-- Generator: Adobe Illustrator 22.1.0, SVG Export Plug-In . SVG Version: 6.00 Build 0)  -->
<svg version="1.1" id="Layer_1" xmlns="http://www.w3.org/2000/svg" xmlns:xlink="http://www.w3.org/1999/xlink" x="0px" y="0px"
	 viewBox="-49 373 48 48" style="enable-background:new -49 373 48 48;" xml:space="preserve">
<path d="M-4.36,399.901l-1.243-4.972c0.34-0.072,0.595-0.374,0.595-0.735v-0.802c0-1.741-1.416-3.157-3.157-3.157h-5.662v-1.653
	c0-0.856-0.697-1.553-1.553-1.553h-10.528l6.398-2.559c0.385-0.154,0.573-0.592,0.419-0.977c-0.154-0.385-0.591-0.573-0.977-0.419
	l-5.238,2.095c1.596-1.024,3.175-2.151,3.777-2.94c1.17-1.535,0.874-3.735-0.661-4.906c-1.535-1.171-3.735-0.874-4.906,0.661l0,0
	c-0.855,1.121-1.984,4.273-2.714,6.493c-0.73-2.22-1.859-5.371-2.714-6.493l0,0c-1.17-1.535-3.371-1.831-4.906-0.661
	c-1.535,1.17-1.831,3.371-0.661,4.906c0.601,0.788,2.18,1.915,3.777,2.94l-5.238-2.095c-0.386-0.154-0.823,0.033-0.977,0.419
	c-0.154,0.385,0.033,0.823,0.419,0.977l6.398,2.559H-44.24c-0.856,0-1.553,0.697-1.553,1.553v13.628
	c0,0.415,0.337,0.752,0.752,0.752c0.415,0,0.752-0.337,0.752-0.752v-13.628c0-0.028,0.022-0.05,0.05-0.05h28.86
	c0.028,0,0.05,0.022,0.05,0.05v13.629c0,0.415,0.337,0.752,0.752,0.752s0.752-0.336,0.752-0.752v-0.852h8.866
	c0.001,0,0.002,0,0.002,0c0.001,0,0.002,0,0.002,0c1.091,0.001,2.017,0.717,2.335,1.704h-2.337c-0.415,0-0.752,0.337-0.752,0.752
	v1.603c0,1.298,1.056,2.355,2.355,2.355h0.852v3.307h-1.965c-0.646-1.864-2.418-3.207-4.498-3.207s-3.853,1.343-4.498,3.207h-0.362
	v-5.662c0-0.415-0.337-0.752-0.752-0.752s-0.752,0.336-0.752,0.752v5.662h-15.594c-0.646-1.864-2.418-3.207-4.498-3.207
	c-2.081,0-3.853,1.343-4.498,3.207h-4.32c-0.028,0-0.05-0.022-0.05-0.05v-1.653h3.257c0.415,0,0.752-0.337,0.752-0.752
	c0-0.415-0.337-0.752-0.752-0.752h-7.215c-0.415,0-0.752,0.337-0.752,0.752c0,0.415,0.337,0.752,0.752,0.752h2.455v1.653
	c0,0.856,0.697,1.553,1.553,1.553h4.06c0,0.017-0.001,0.033-0.001,0.05c0,2.625,2.135,4.76,4.76,4.76s4.76-2.135,4.76-4.76
	c0-0.017-0.001-0.033-0.001-0.05h16.938c0,0.017-0.001,0.033-0.001,0.05c0,2.625,2.135,4.76,4.76,4.76s4.76-2.135,4.76-4.76
	c0-0.017-0.001-0.033-0.001-0.05h2.457c0.415,0,0.752-0.336,0.752-0.752v-8.017C-1,401.834-2.46,400.19-4.36,399.901z
	 M-25.901,378.896L-25.901,378.896c0.668-0.876,1.923-1.045,2.799-0.377c0.876,0.668,1.045,1.923,0.377,2.799
	c-0.26,0.341-1.14,1.189-4.104,3.031c-0.599,0.372-1.182,0.722-1.689,1.02C-27.766,383.058-26.628,379.85-25.901,378.896z
	 M-36.895,381.318c-0.668-0.876-0.499-2.131,0.377-2.799c0.361-0.275,0.786-0.408,1.209-0.408c0.602,0,1.198,0.271,1.59,0.785l0,0
	c0.727,0.953,1.866,4.162,2.617,6.474c-0.507-0.299-1.09-0.648-1.689-1.02C-35.755,382.507-36.635,381.66-36.895,381.318z
	 M-13.827,394.945h6.678l1.228,4.91h-7.906V394.945z M-8.165,391.739c0.912,0,1.653,0.742,1.653,1.653v0.05h-7.315v-1.704H-8.165z
	 M-35.422,415.889c-1.796,0-3.257-1.461-3.257-3.257s1.461-3.257,3.257-3.257c1.796,0,3.257,1.461,3.257,3.257
	S-33.626,415.889-35.422,415.889z M-8.967,415.889c-1.796,0-3.257-1.461-3.257-3.257s1.461-3.257,3.257-3.257
	s3.257,1.461,3.257,3.257S-7.171,415.889-8.967,415.889z M-3.355,406.269c-0.47,0-0.852-0.382-0.852-0.852v-0.852h1.704v1.704
	H-3.355z"/>
<path d="M-35.422,411.079c-0.856,0-1.553,0.697-1.553,1.553s0.697,1.553,1.553,1.553s1.553-0.697,1.553-1.553
	S-34.565,411.079-35.422,411.079z"/>
<path d="M-8.967,411.079c-0.856,0-1.553,0.697-1.553,1.553s0.697,1.553,1.553,1.553c0.856,0,1.553-0.697,1.553-1.553
	S-8.11,411.079-8.967,411.079z"/>
<path d="M-29.76,408.624c0,0.415,0.337,0.752,0.752,0.752h11.223c0.415,0,0.752-0.337,0.752-0.752s-0.337-0.752-0.752-0.752h-11.223
	C-29.423,407.872-29.76,408.209-29.76,408.624z"/>
<path d="M-46.645,406.169h9.62c0.415,0,0.752-0.336,0.752-0.752s-0.337-0.752-0.752-0.752h-9.62c-0.415,0-0.752,0.336-0.752,0.752
	S-47.06,406.169-46.645,406.169z"/>
<path d="M-37.025,394.945c0.415,0,0.752-0.336,0.752-0.752s-0.337-0.752-0.752-0.752h-3.207c-0.415,0-0.752,0.336-0.752,0.752v6.413
	c0,0.415,0.337,0.752,0.752,0.752c0.415,0,0.752-0.336,0.752-0.752v-2.455h1.653c0.415,0,0.752-0.337,0.752-0.752
	c0-0.415-0.337-0.752-0.752-0.752h-1.653v-1.704H-37.025L-37.025,394.945z"/>
<path d="M-29.86,396.198c0-1.52-1.236-2.756-2.756-2.756h-2.004c-0.415,0-0.752,0.336-0.752,0.752v6.413
	c0,0.415,0.337,0.752,0.752,0.752c0.415,0,0.752-0.336,0.752-0.752v-1.653h1.251l1.38,2.07c0.145,0.217,0.383,0.335,0.626,0.335
	c0.143,0,0.288-0.041,0.416-0.126c0.345-0.23,0.439-0.697,0.208-1.042l-1.124-1.686C-30.358,398.012-29.86,397.162-29.86,396.198z
	 M-33.868,394.945h1.253c0.691,0,1.253,0.562,1.253,1.253s-0.562,1.253-1.253,1.253h-1.253V394.945z"/>
<path d="M-25,394.945c0.415,0,0.752-0.336,0.752-0.752s-0.337-0.752-0.752-0.752h-3.207c-0.415,0-0.752,0.336-0.752,0.752v6.413
	c0,0.415,0.337,0.752,0.752,0.752H-25c0.415,0,0.752-0.336,0.752-0.752s-0.337-0.752-0.752-0.752h-2.455v-1.706
	c0.017,0.001,0.033,0.003,0.05,0.003h1.603c0.415,0,0.752-0.337,0.752-0.752c0-0.415-0.337-0.752-0.752-0.752h-1.603
	c-0.017,0-0.033,0.001-0.05,0.003v-1.706H-25L-25,394.945z"/>
<path d="M-19.388,394.945c0.415,0,0.752-0.336,0.752-0.752s-0.337-0.752-0.752-0.752h-3.207c-0.415,0-0.752,0.336-0.752,0.752v6.413
	c0,0.415,0.337,0.752,0.752,0.752h3.207c0.415,0,0.752-0.336,0.752-0.752s-0.337-0.752-0.752-0.752h-2.455v-1.704h0.852
	c0.415,0,0.752-0.337,0.752-0.752c0-0.415-0.337-0.752-0.752-0.752h-0.852v-1.704H-19.388L-19.388,394.945z"/>
</svg>
