<?xml version="1.0" encoding="iso-8859-1"?>
<!-- Generator: Adobe Illustrator 22.1.0, SVG Export Plug-In . SVG Version: 6.00 Build 0)  -->
<svg version="1.1" id="Layer_1" xmlns="http://www.w3.org/2000/svg" xmlns:xlink="http://www.w3.org/1999/xlink" x="0px" y="0px"
	 viewBox="-49 373 48 48" style="enable-background:new -49 373 48 48;" xml:space="preserve">
<path d="M-18.987,407.362h-27.49c-0.503,0-0.913-0.409-0.913-0.913v-25.772c0-0.503,0.409-0.913,0.913-0.913H-6.96
	c0.503,0,0.913,0.409,0.913,0.913v11.168c0,0.445,0.361,0.805,0.805,0.805c0.445,0,0.805-0.361,0.805-0.805v-11.168
	c0-1.391-1.132-2.523-2.523-2.523h-39.517c-1.391,0-2.523,1.132-2.523,2.523v25.772c0,1.391,1.132,2.523,2.523,2.523h27.49
	c0.445,0,0.805-0.361,0.805-0.805C-18.181,407.723-18.542,407.362-18.987,407.362z"/>
<path d="M-33.644,390.987v-5.154c0-0.918-0.747-1.664-1.664-1.664h-6.872c-0.918,0-1.664,0.747-1.664,1.664v5.154
	c0,0.918,0.747,1.664,1.664,1.664h6.872C-34.391,392.651-33.644,391.904-33.644,390.987z M-35.255,385.832v5.154
	c0,0.03-0.024,0.054-0.054,0.054h-3.49v-1.826h0.913c0.445,0,0.805-0.361,0.805-0.805c0-0.445-0.361-0.805-0.805-0.805h-0.913
	v-1.826h3.49C-35.279,385.779-35.255,385.803-35.255,385.832z M-42.235,390.987v-5.154c0-0.03,0.024-0.054,0.054-0.054h1.772v5.262
	h-1.772C-42.211,391.04-42.235,391.016-42.235,390.987z"/>
<path d="M-16.837,384.085c-0.761-0.504-1.656-0.776-2.579-0.776c-2.576,0-4.671,2.095-4.671,4.671s2.095,4.671,4.671,4.671
	c0.951,0,1.837-0.287,2.576-0.777c0.761,0.504,1.658,0.777,2.578,0.777c2.576,0,4.671-2.095,4.671-4.671s-2.095-4.671-4.671-4.671
	C-15.213,383.309-16.098,383.595-16.837,384.085z M-22.477,387.98c0-1.688,1.373-3.06,3.06-3.06c0.48,0,0.949,0.113,1.371,0.325
	c-0.558,0.77-0.888,1.714-0.888,2.735c0,0.993,0.316,1.947,0.886,2.736c-0.412,0.207-0.877,0.325-1.37,0.325
	C-21.104,391.04-22.477,389.667-22.477,387.98z M-11.201,387.98c0,1.688-1.373,3.06-3.06,3.06c-0.479,0-0.949-0.113-1.371-0.325
	c0.558-0.77,0.888-1.714,0.888-2.735c0-0.445-0.361-0.805-0.805-0.805s-0.805,0.361-0.805,0.805c0,0.607-0.178,1.172-0.484,1.648
	c-0.312-0.487-0.483-1.057-0.483-1.648c0-1.688,1.373-3.06,3.06-3.06S-11.201,386.292-11.201,387.98z"/>
<path d="M-43.04,397.054c-0.445,0-0.805,0.361-0.805,0.805c0,0.445,0.361,0.805,0.805,0.805h6.872c0.445,0,0.805-0.361,0.805-0.805
	c0-0.445-0.361-0.805-0.805-0.805H-43.04z"/>
<path d="M-18.128,402.208H-43.04c-0.445,0-0.805,0.361-0.805,0.805c0,0.445,0.361,0.805,0.805,0.805h24.913
	c0.445,0,0.805-0.361,0.805-0.805C-17.322,402.569-17.683,402.208-18.128,402.208z"/>
<path d="M-32.732,397.054c-0.445,0-0.805,0.361-0.805,0.805c0,0.445,0.361,0.805,0.805,0.805h6.872c0.445,0,0.805-0.361,0.805-0.805
	c0-0.445-0.361-0.805-0.805-0.805H-32.732z"/>
<path d="M-17.268,397.054h-5.154c-0.445,0-0.805,0.361-0.805,0.805c0,0.445,0.361,0.805,0.805,0.805h5.154
	c0.445,0,0.805-0.361,0.805-0.805C-16.463,397.414-16.824,397.054-17.268,397.054z"/>
<path d="M-2.718,403.2v-3.622c0-3.286-2.674-5.96-5.96-5.96s-5.96,2.673-5.96,5.96v3.622c-0.998,0.337-1.718,1.281-1.718,2.391
	v7.732c0,1.391,1.132,2.523,2.523,2.523h10.309c1.391,0,2.523-1.132,2.523-2.523v-7.732C-1,404.481-1.721,403.537-2.718,403.2z
	 M-8.678,395.228c2.398,0,4.349,1.951,4.349,4.349v3.49h-8.698v-3.49C-13.027,397.179-11.076,395.228-8.678,395.228z
	 M-2.611,413.322c0,0.503-0.409,0.913-0.913,0.913h-10.309c-0.503,0-0.913-0.409-0.913-0.913v-7.732
	c0-0.503,0.409-0.913,0.913-0.913h10.309c0.503,0,0.913,0.409,0.913,0.913V413.322z"/>
<path d="M-8.678,406.503c-1.155,0-2.094,0.939-2.094,2.094c0,0.869,0.533,1.616,1.289,1.932v1.074c0,0.445,0.361,0.805,0.805,0.805
	s0.805-0.361,0.805-0.805v-1.074c0.756-0.316,1.289-1.063,1.289-1.932C-6.584,407.443-7.523,406.503-8.678,406.503z M-8.678,408.114
	c0.266,0,0.483,0.217,0.483,0.483s-0.217,0.483-0.483,0.483s-0.483-0.217-0.483-0.483S-8.944,408.114-8.678,408.114z"/>
</svg>
