<?xml version="1.0" encoding="iso-8859-1"?>
<!-- Generator: Adobe Illustrator 22.1.0, SVG Export Plug-In . SVG Version: 6.00 Build 0)  -->
<svg version="1.1" id="Layer_1" xmlns="http://www.w3.org/2000/svg" xmlns:xlink="http://www.w3.org/1999/xlink" x="0px" y="0px"
	 viewBox="-49 373 48 48" style="enable-background:new -49 373 48 48;" xml:space="preserve">
<path d="M-1,376.269c0.004-0.876-0.335-1.699-0.952-2.317c-0.618-0.618-1.436-0.956-2.317-0.952
	c-0.874,0.004-1.697,0.347-2.317,0.967c-0.262,0.262-0.74,0.829-1.001,1.144c-0.274,0.33-0.229,0.821,0.102,1.095
	c0.33,0.274,0.821,0.229,1.095-0.102c0.409-0.493,0.747-0.881,0.904-1.038c0.328-0.328,0.762-0.51,1.223-0.512
	c0.002,0,0.005,0,0.007,0c0.456,0,0.883,0.176,1.203,0.497c0.322,0.322,0.499,0.752,0.497,1.211
	c-0.002,0.461-0.184,0.895-0.512,1.223c-0.293,0.294-1.302,1.094-2.748,2.104c-0.855-1.462-2.441-2.447-4.253-2.447h-11.387
	c-1.537,0-2.982,0.599-4.069,1.685l-22.762,22.762c-0.46,0.46-0.714,1.072-0.714,1.723c0,0.651,0.254,1.263,0.714,1.723l15.25,15.25
	c0.46,0.46,1.072,0.714,1.723,0.714c0.651,0,1.263-0.254,1.723-0.714l22.762-22.762c1.087-1.087,1.685-2.532,1.685-4.069v-11.387
	c0-0.336-0.034-0.664-0.099-0.982c1.645-1.132,2.853-2.079,3.275-2.501C-1.347,377.966-1.004,377.143-1,376.269z M-6.698,382.068
	v11.387c0,1.122-0.437,2.176-1.23,2.969l-22.762,22.762c-0.344,0.344-0.903,0.344-1.246,0l-15.25-15.25
	c-0.344-0.344-0.344-0.903,0-1.246l22.762-22.762c0.793-0.793,1.848-1.23,2.969-1.23h11.387c1.279,0,2.393,0.716,2.964,1.768
	c-0.919,0.608-1.947,1.255-3.038,1.891c-0.034-0.037-0.069-0.074-0.105-0.11c-1.273-1.273-3.346-1.273-4.619,0s-1.273,3.346,0,4.619
	c0.637,0.637,1.473,0.955,2.31,0.955c0.836,0,1.673-0.318,2.31-0.955c0.85-0.85,1.132-2.056,0.847-3.142
	c0.949-0.552,1.86-1.117,2.701-1.663C-6.699,382.063-6.698,382.066-6.698,382.068z M-13.251,384.906
	c0.137,0.272,0.411,0.428,0.695,0.428c0.117,0,0.237-0.027,0.349-0.083c0.456-0.229,0.91-0.468,1.36-0.712
	c0.004,0.444-0.162,0.889-0.499,1.227c-0.667,0.667-1.752,0.667-2.42,0c-0.667-0.667-0.667-1.752,0-2.42
	c0.334-0.334,0.772-0.5,1.21-0.5c0.347,0,0.693,0.106,0.988,0.315c-0.44,0.239-0.887,0.474-1.337,0.7
	C-13.29,384.055-13.444,384.522-13.251,384.906z"/>
<path d="M-32.679,398.814c-0.304-0.304-0.796-0.304-1.1,0c-0.304,0.304-0.304,0.796,0,1.1l2.383,2.383l-3.006,3.006l-2.383-2.383
	c-0.304-0.304-0.796-0.304-1.1,0c-0.304,0.304-0.304,0.796,0,1.1l5.865,5.865c0.152,0.152,0.351,0.228,0.55,0.228
	s0.398-0.076,0.55-0.228c0.304-0.304,0.304-0.796,0-1.1l-2.383-2.383l3.006-3.006l2.383,2.383c0.152,0.152,0.351,0.228,0.55,0.228
	c0.199,0,0.398-0.076,0.55-0.228c0.304-0.304,0.304-0.796,0-1.1L-32.679,398.814z"/>
<path d="M-24.174,394.415c-1.435-1.435-3.77-1.435-5.205,0c-1.435,1.435-1.435,3.77,0,5.205l1.76,1.76
	c0.718,0.718,1.66,1.076,2.603,1.076s1.885-0.359,2.603-1.076c1.435-1.435,1.435-3.77,0-5.205L-24.174,394.415z M-23.514,400.28
	c-0.829,0.829-2.177,0.829-3.006,0l-1.76-1.76c-0.829-0.829-0.829-2.177,0-3.006c0.414-0.414,0.959-0.622,1.503-0.622
	s1.089,0.207,1.503,0.622l1.76,1.76C-22.686,398.103-22.686,399.451-23.514,400.28z"/>
<path d="M-21.572,388.806l1.796-1.796c0.304-0.304,0.304-0.796,0-1.1c-0.304-0.304-0.796-0.304-1.1,0l-4.692,4.692
	c-0.304,0.304-0.304,0.796,0,1.1c0.152,0.152,0.351,0.228,0.55,0.228c0.199,0,0.398-0.076,0.55-0.228l1.796-1.796l5.315,5.315
	c0.152,0.152,0.351,0.228,0.55,0.228s0.398-0.076,0.55-0.228c0.304-0.304,0.304-0.796,0-1.1L-21.572,388.806z"/>
</svg>
