<?xml version="1.0" encoding="utf-8"?>
<svg xmlns="http://www.w3.org/2000/svg" width="16" height="16">
<path d="M7,14v-2h9v2H7z M14,7h2v2h-2V7z M12.5,6C12.8,6,13,6.2,13,6.5v3c0,0.3-0.2,0.5-0.5,0.5h-2
	C10.2,10,10,9.8,10,9.5v-3C10,6.2,10.2,6,10.5,6H12.5z M7,2h9v2H7V2z M5.5,5h-2C3.2,5,3,4.8,3,4.5v-3C3,1.2,3.2,1,3.5,1h2
	C5.8,1,6,1.2,6,1.5v3C6,4.8,5.8,5,5.5,5z M0,2h2v2H0V2z M9,9H0V7h9V9z M2,14H0v-2h2V14z M3.5,11h2C5.8,11,6,11.2,6,11.5v3
	C6,14.8,5.8,15,5.5,15h-2C3.2,15,3,14.8,3,14.5v-3C3,11.2,3.2,11,3.5,11z"/>
</svg>
