<?xml version="1.0" encoding="utf-8"?>
<!-- Generator: Adobe Illustrator 22.1.0, SVG Export Plug-In . SVG Version: 6.00 Build 0)  -->
<svg version="1.1" id="Layer_1" xmlns="http://www.w3.org/2000/svg" xmlns:xlink="http://www.w3.org/1999/xlink" x="0px" y="0px"
	 viewBox="0 0 16 16" style="enable-background:new 0 0 16 16;" xml:space="preserve">
<path d="M16,0.8v14.4c0,0.4-0.4,0.8-0.8,0.8H9.8C9.4,16,9,15.6,9,15.2V0.8C9,0.4,9.4,0,9.8,0l5.4,0C15.6,0,16,0.4,16,0.8z M7,0.8
	v14.4C7,15.6,6.6,16,6.2,16H0.8C0.4,16,0,15.6,0,15.2L0,0.8C0,0.4,0.4,0,0.8,0l5.4,0C6.6,0,7,0.4,7,0.8z"/>
</svg>
