<svg xmlns="http://www.w3.org/2000/svg" width="16px" height="16px">
    <path d="M15.200,16.000 L0.800,16.000 C0.358,16.000 -0.000,15.642 -0.000,15.200 L-0.000,9.800 C-0.000,9.358 0.358,9.000 0.800,9.000 L15.200,9.000 C15.642,9.000 16.000,9.358 16.000,9.800 L16.000,15.200 C16.000,15.642 15.642,16.000 15.200,16.000 ZM15.200,7.000 L0.800,7.000 C0.358,7.000 -0.000,6.642 -0.000,6.200 L-0.000,0.800 C-0.000,0.358 0.358,-0.000 0.800,-0.000 L15.200,-0.000 C15.642,-0.000 16.000,0.358 16.000,0.800 L16.000,6.200 C16.000,6.642 15.642,7.000 15.200,7.000 Z"/>
</svg>