<?xml version="1.0" encoding="utf-8"?><svg xmlns="http://www.w3.org/2000/svg" xmlns:xlink="http://www.w3.org/1999/xlink"><symbol viewBox="0 0 12 7" id="arrow-rounded-down-12x7" xmlns="http://www.w3.org/2000/svg"><path d="M.286.273a.92.92 0 0 0-.01 1.292l5.24 5.428 5.241-5.428a.92.92 0 0 0-.01-1.292.923.923 0 0 0-1.31.006L5.516 4.296 1.596.279A.923.923 0 0 0 .286.273z"/></symbol><symbol viewBox="0 0 7 5" id="arrow-rounded-down-7x5" xmlns="http://www.w3.org/2000/svg"><path d="M.3.3c.4-.4 1-.4 1.3 0l1.9 2 1.9-2c.4-.4 1-.4 1.3 0 .4.4.4.9 0 1.3L3.5 5 .3 1.6C-.1 1.2-.1.6.3.3z"/></symbol><symbol viewBox="0 0 9 6" id="arrow-rounded-down-9x6" xmlns="http://www.w3.org/2000/svg"><path d="M.2.4c.4-.4 1-.5 1.4-.1l2.9 3 2.9-3c.4-.4 1.1-.4 1.4.1.3.4.3.9-.1 1.3L4.5 6 .3 1.6C-.1 1.3-.1.7.2.4z"/></symbol><symbol viewBox="0 0 6 9" id="arrow-rounded-left-6x9" xmlns="http://www.w3.org/2000/svg"><path d="M5.7 8.7c-.4.4-.9.4-1.3 0L0 4.5 4.4.3c.4-.4.9-.3 1.3 0 .4.4.4 1 0 1.3l-3 2.9 3 2.9c.4.4.4 1 0 1.3z"/></symbol><symbol viewBox="0 0 7 11" id="arrow-rounded-left-7x11" xmlns="http://www.w3.org/2000/svg"><path d="M6.7.3c-.4-.4-.9-.4-1.3 0L0 5.5l5.4 5.2c.4.4.9.3 1.3 0 .4-.4.4-1 0-1.3l-4-3.9 4-3.9c.4-.4.4-1 0-1.3z"/></symbol><symbol viewBox="0 0 8 13" id="arrow-rounded-left-8x13" xmlns="http://www.w3.org/2000/svg"><path d="M7.7 12.7c-.4.4-.9.4-1.3 0L0 6.5 6.4.3c.4-.4.9-.3 1.3 0 .4.4.4 1 0 1.3l-5 4.9 5 4.9c.4.4.4 1 0 1.3z"/></symbol><symbol viewBox="0 0 6 9" id="arrow-rounded-right-6x9" xmlns="http://www.w3.org/2000/svg"><path d="M.4 8.8c-.4-.4-.5-1-.1-1.4l3-2.9-3-2.9C-.1 1.2-.1.5.4.2c.4-.3.9-.3 1.3.1L6 4.5 1.6 8.7c-.3.4-.9.4-1.2.1z"/></symbol><symbol viewBox="0 0 7 11" id="arrow-rounded-right-7x11" xmlns="http://www.w3.org/2000/svg"><path d="M.3 10.7c.4.4.9.4 1.3 0L7 5.5 1.6.3C1.2-.1.7 0 .3.3c-.4.4-.4 1 0 1.3l4 3.9-4 3.9c-.4.4-.4 1 0 1.3z"/></symbol><symbol viewBox="0 0 8 13" id="arrow-rounded-right-8x13" xmlns="http://www.w3.org/2000/svg"><path d="M.3 11.4l5-4.9-5-4.9C-.1 1.2-.1.7.3.3s.9-.4 1.3 0L8 6.5l-6.4 6.2c-.4.4-.9.3-1.3 0s-.4-.9 0-1.3z"/></symbol><symbol viewBox="0 0 13 8" id="arrow-rounded-up-13x8" xmlns="http://www.w3.org/2000/svg"><path d="M11.4 7.7l-4.9-5-4.9 5c-.4.4-.9.4-1.3 0s-.4-.9 0-1.3L6.5 0l6.2 6.4c.4.4.3.9 0 1.3s-.9.4-1.3 0z"/></symbol><symbol viewBox="0 0 16 16" id="cart-16" xmlns="http://www.w3.org/2000/svg"><path d="M14.2 10.3c-.1.4-.5.7-.9.7H4.8c-.5 0-.9-.3-1-.8L2.2 4c-.1-.6-.6-1-1.2-1H.4C.2 3 0 2.8 0 2.6V1.4c0-.2.2-.4.4-.4h1.4c1 0 1.9.7 2.1 1.7l1.5 6.1c.1.1.3.2.4.2h6.5c.1 0 .2-.1.3-.2l1.1-3.4c.1-.2 0-.4-.2-.4H7.4c-.2 0-.4-.2-.4-.4V3.4c0-.2.2-.4.4-.4H15c.6 0 1 .4 1 1v1l-1.8 5.3zM4.5 13c.8 0 1.5.7 1.5 1.5S5.3 16 4.5 16 3 15.3 3 14.5 3.7 13 4.5 13zm7 0c.8 0 1.5.7 1.5 1.5s-.7 1.5-1.5 1.5-1.5-.7-1.5-1.5.7-1.5 1.5-1.5z"/></symbol><symbol viewBox="0 0 20 20" id="cart-20" xmlns="http://www.w3.org/2000/svg"><circle cx="7" cy="17" r="2"/><circle cx="15" cy="17" r="2"/><path d="M20 4.4V5l-1.8 6.3c-.1.4-.5.7-1 .7H6.7c-.4 0-.8-.3-1-.7L3.3 3.9c-.2-.6-.7-.9-1.2-.9H.4C.2 3 0 2.8 0 2.6V1.4c0-.2.2-.4.4-.4h2.5c1 0 1.8.6 2.1 1.6l.1.4 2.3 6.8c0 .1.2.2.3.2h8.6c.1 0 .3-.1.3-.2l1.3-4.4c0-.2-.2-.4-.4-.4H9.4c-.2 0-.4-.2-.4-.4V3.4c0-.2.2-.4.4-.4h9.2c.8 0 1.4.6 1.4 1.4z"/></symbol><symbol viewBox="0 0 100 100" id="check-100" xmlns="http://www.w3.org/2000/svg"><path class="amst0" d="M50 100C22.4 100 0 77.6 0 50S22.4 0 50 0s50 22.4 50 50-22.4 50-50 50zm0-98C23.5 2 2 23.5 2 50s21.5 48 48 48 48-21.5 48-48S76.5 2 50 2zm-5.8 69L22.3 49.1l1.4-1.4 21.2 21.2 34.4-34.4 1.4 1.4L45.6 71c-.4.4-1 .4-1.4 0z"/></symbol><symbol viewBox="0 0 12 9" id="check-12x9" xmlns="http://www.w3.org/2000/svg"><path d="M12.002 1.396L4.461 9.002-.002 4.498l1.385-1.402 3.078 3.107 6.156-6.209 1.385 1.402z"/></symbol><symbol viewBox="0 0 9 7" id="check-9x7" xmlns="http://www.w3.org/2000/svg"><path d="M9.002 1.396L3.461 7.002-.002 3.498l1.385-1.402 2.078 2.103L7.617-.006l1.385 1.402z"/></symbol><symbol viewBox="0 0 16 16" id="compare-16" xmlns="http://www.w3.org/2000/svg"><path d="M9 15H7c-.6 0-1-.4-1-1V2c0-.6.4-1 1-1h2c.6 0 1 .4 1 1v12c0 .6-.4 1-1 1zM1 9h2c.6 0 1 .4 1 1v4c0 .6-.4 1-1 1H1c-.6 0-1-.4-1-1v-4c0-.6.4-1 1-1zM15 5h-2c-.6 0-1 .4-1 1v8c0 .6.4 1 1 1h2c.6 0 1-.4 1-1V6c0-.6-.4-1-1-1z"/></symbol><symbol viewBox="0 0 10 10" id="cross-10" xmlns="http://www.w3.org/2000/svg"><path d="M8.8 8.8c-.4.4-1 .4-1.4 0L5 6.4 2.6 8.8c-.4.4-1 .4-1.4 0-.4-.4-.4-1 0-1.4L3.6 5 1.2 2.6c-.4-.4-.4-1 0-1.4.4-.4 1-.4 1.4 0L5 3.6l2.4-2.4c.4-.4 1-.4 1.4 0 .4.4.4 1 0 1.4L6.4 5l2.4 2.4c.4.4.4 1 0 1.4z"/></symbol><symbol viewBox="0 0 12 12" id="cross-12" xmlns="http://www.w3.org/2000/svg"><path d="M10.8 10.8c-.4.4-1 .4-1.4 0L6 7.4l-3.4 3.4c-.4.4-1 .4-1.4 0-.4-.4-.4-1 0-1.4L4.6 6 1.2 2.6c-.4-.4-.4-1 0-1.4.4-.4 1-.4 1.4 0L6 4.6l3.4-3.4c.4-.4 1-.4 1.4 0 .4.4.4 1 0 1.4L7.4 6l3.4 3.4c.4.4.4 1 0 1.4z"/></symbol><symbol viewBox="0 0 20 20" id="cross-20" xmlns="http://www.w3.org/2000/svg"><path d="M17.71 17.71a.99.99 0 0 1-1.4 0L10 11.4l-6.31 6.31a.99.99 0 1 1-1.4-1.4L8.6 10 2.29 3.69a.99.99 0 1 1 1.4-1.4L10 8.6l6.31-6.31a.99.99 0 1 1 1.4 1.4L11.4 10l6.31 6.31a.99.99 0 0 1 0 1.4z"/></symbol><symbol viewBox="0 0 48 48" id="fi-24-hours-48" xmlns="http://www.w3.org/2000/svg"><path d="M46.218 18.168h-.262v-.869c0-1.175-1.211-1.766-2.453-1.766-.521 0-.985.094-1.366.263.015-.028 2.29-4.591 2.303-4.62.968-2.263-3.041-4.024-4.372-1.449l-5.184 10.166c-.35.648-.364 1.449.033 2.081a1.443 1.443 0 0 0-.668-.166H29.37c1.555-1.597 6.638-3.535 6.638-8.011 0-1.599-.676-3.02-1.903-4.002-1.088-.87-2.52-1.35-4.033-1.35-2.802 0-5.779 1.758-5.779 5.015 0 2.195 1.426 2.522 2.275 2.522 1.653 0 2.545-1.022 2.545-1.983 0-.485.117-.981.981-.981.906 0 1.003.623 1.003.891 0 2.284-7.074 4.474-7.074 8.399v2.178c0 1.147 1.319 1.781 2.23 1.781h7.995c1.426 0 2.332-2.195 1.348-3.669.265.137.569.21.898.21h4.552v1.678c0 1.049 1.01 1.781 2.455 1.781s2.455-.733 2.455-1.781v-1.678h.262c1.02 0 1.781-1.225 1.781-2.32.001-1.344-.748-2.32-1.781-2.32zm-11.977 6.693h-7.987c-.389 0-.802-.258-.824-.375v-2.179c0-3.056 7.074-5.046 7.074-8.399 0-1.107-.754-2.298-2.41-2.298-1.473 0-2.388.915-2.388 2.388 0 .236-.405.577-1.138.577-.492 0-.869-.082-.869-1.116 0-2.344 2.253-3.609 4.373-3.609 2.251 0 4.53 1.355 4.53 3.946 0 4.526-6.94 5.826-6.94 8.511v.202c0 .389.315.703.703.703h5.882c.091.015.354.314.354.802 0 .48-.252.811-.36.847zm11.953-3.459h-.941a.703.703 0 0 0-.703.703v2.381c0 .151-.44.375-1.048.375-.608 0-1.049-.224-1.049-.375v-2.381a.703.703 0 0 0-.703-.703h-5.255c-.518 0-.545-.528-.371-.846l.009-.018 5.186-10.17c.533-1.031 1.883-.238 1.884.097-.011.087.038-.035-4.014 8.092a.704.704 0 0 0 .629 1.017h1.932a.703.703 0 0 0 .703-.703v-1.572c0-.123.409-.36 1.051-.36.618 0 1.046.223 1.046.36v1.572c0 .389.315.703.703.703h.966c.196 0 .375.435.375.914-.001.463-.27.85-.4.914zm-5.148-3.418v.184h-.092l.092-.184zm0 0M36.976 36.602a19.307 19.307 0 0 0 5.202-8.354.704.704 0 0 0-1.344-.413 17.888 17.888 0 0 1-4.823 7.744.704.704 0 0 0 .965 1.023zm0 0M35.099 7.86a.703.703 0 0 0-.164-.981C29.684 3.131 23.098 2.38 17.381 4.38a.703.703 0 1 0 .465 1.327c5.23-1.83 11.346-1.199 16.272 2.316a.703.703 0 0 0 .981-.163zm0 0M25.247 43.573a3.861 3.861 0 0 0-2.807-.416c-.525.123-1.064.207-1.602.251a.703.703 0 1 0 .115 1.402c.606-.05 1.214-.145 1.807-.284a2.46 2.46 0 0 1 1.788.267 4.976 4.976 0 0 0 5.076-.064c3.605-2.207 3.212-1.964 3.359-2.061a4.978 4.978 0 0 0 1.519-6.755l-2.538-4.145a4.98 4.98 0 0 0-6.835-1.644l-3.235 1.981a4.95 4.95 0 0 0-2.371 4.214.245.245 0 0 1-.293.237 7.263 7.263 0 0 1-3.306-1.683 26.405 26.405 0 0 1-3.656-3.984.703.703 0 1 0-1.132.834 27.801 27.801 0 0 0 3.85 4.197 8.665 8.665 0 0 0 3.947 2.01 1.652 1.652 0 0 0 1.996-1.602 3.551 3.551 0 0 1 1.699-3.025l2.742-1.679 6.261 10.224-2.742 1.679a3.564 3.564 0 0 1-3.642.046zm1.375-12.596c1.54-.495 3.282.119 4.142 1.525l2.538 4.145c.865 1.413.611 3.242-.524 4.383l-6.156-10.053zm0 0"/><path d="M.403 23.192c.998 3.783 2.422 7.199 4.232 10.155 1.81 2.956 4.206 5.777 7.121 8.386a12.246 12.246 0 0 0 5.717 2.868.704.704 0 1 0 .281-1.378 10.837 10.837 0 0 1-5.06-2.538c-2.813-2.517-5.121-5.233-6.859-8.072-1.739-2.839-3.108-6.13-4.071-9.78a10.899 10.899 0 0 1 2.228-9.803 3.863 3.863 0 0 0 .906-2.69 3.57 3.57 0 0 1 1.694-3.224l2.742-1.679 6.261 10.224-2.742 1.679a3.553 3.553 0 0 1-3.436.153 1.653 1.653 0 0 0-2.319 1.052 8.664 8.664 0 0 0-.015 4.47c.558 2.115 1.315 4.081 2.249 5.843a.704.704 0 0 0 1.243-.659c-.884-1.667-1.601-3.532-2.132-5.543a7.267 7.267 0 0 1 .012-3.744.245.245 0 0 1 .342-.156 4.954 4.954 0 0 0 4.789-.216l3.235-1.981a4.979 4.979 0 0 0 1.643-6.835l-2.538-4.145c-1.44-2.351-4.516-3.063-6.835-1.643L5.858 5.917a4.974 4.974 0 0 0-2.365 4.492 2.46 2.46 0 0 1-.575 1.714A12.305 12.305 0 0 0 .403 23.192zM14.728 6.314l2.538 4.145c.865 1.414.61 3.243-.524 4.383L10.586 4.788c1.534-.493 3.278.115 4.142 1.526zm0 0"/></symbol><symbol viewBox="-49 373 48 48" id="fi-free-delivery-48" xmlns="http://www.w3.org/2000/svg"><path d="M-4.36 399.901l-1.243-4.972a.752.752 0 0 0 .595-.735v-.802a3.16 3.16 0 0 0-3.157-3.157h-5.662v-1.653c0-.856-.697-1.553-1.553-1.553h-10.528l6.398-2.559a.752.752 0 0 0-.558-1.396l-5.238 2.095c1.596-1.024 3.175-2.151 3.777-2.94a3.505 3.505 0 0 0-.661-4.906 3.504 3.504 0 0 0-4.906.661c-.855 1.121-1.984 4.273-2.714 6.493-.73-2.22-1.859-5.371-2.714-6.493a3.504 3.504 0 0 0-4.906-.661 3.504 3.504 0 0 0-.661 4.906c.601.788 2.18 1.915 3.777 2.94l-5.238-2.095a.751.751 0 1 0-.558 1.396l6.398 2.559H-44.24c-.856 0-1.553.697-1.553 1.553v13.628a.752.752 0 0 0 1.504 0v-13.628a.05.05 0 0 1 .05-.05h28.86a.05.05 0 0 1 .05.05v13.629a.752.752 0 0 0 1.504 0v-.852H-4.955a2.459 2.459 0 0 1 2.335 1.704h-2.337a.752.752 0 0 0-.752.752v1.603a2.358 2.358 0 0 0 2.355 2.355h.852v3.307h-1.965c-.646-1.864-2.418-3.207-4.498-3.207s-3.853 1.343-4.498 3.207h-.362v-5.662a.752.752 0 0 0-1.504 0v5.662h-15.594a4.768 4.768 0 0 0-4.498-3.207 4.766 4.766 0 0 0-4.498 3.207h-4.32a.05.05 0 0 1-.05-.05v-1.653h3.257a.752.752 0 0 0 0-1.504h-7.215a.752.752 0 0 0 0 1.504h2.455v1.653c0 .856.697 1.553 1.553 1.553h4.06l-.001.05c0 2.625 2.135 4.76 4.76 4.76s4.76-2.135 4.76-4.76l-.001-.05h16.938l-.001.05c0 2.625 2.135 4.76 4.76 4.76s4.76-2.135 4.76-4.76l-.001-.05h2.457a.752.752 0 0 0 .752-.752v-8.017a3.97 3.97 0 0 0-3.364-3.913zm-21.541-21.005a1.999 1.999 0 0 1 2.799-.377 1.999 1.999 0 0 1 .377 2.799c-.26.341-1.14 1.189-4.104 3.031a82.05 82.05 0 0 1-1.689 1.02c.752-2.311 1.89-5.519 2.617-6.473zm-10.994 2.422a1.999 1.999 0 0 1 1.586-3.207c.602 0 1.198.271 1.59.785.727.953 1.866 4.162 2.617 6.474a86.756 86.756 0 0 1-1.689-1.02c-2.964-1.843-3.844-2.69-4.104-3.032zm23.068 13.627h6.678l1.228 4.91h-7.906v-4.91zm5.662-3.206c.912 0 1.653.742 1.653 1.653v.05h-7.315v-1.704h5.662zm-27.257 24.15c-1.796 0-3.257-1.461-3.257-3.257s1.461-3.257 3.257-3.257 3.257 1.461 3.257 3.257-1.461 3.257-3.257 3.257zm26.455 0c-1.796 0-3.257-1.461-3.257-3.257s1.461-3.257 3.257-3.257 3.257 1.461 3.257 3.257-1.461 3.257-3.257 3.257zm5.612-9.62a.853.853 0 0 1-.852-.852v-.852h1.704v1.704h-.852z"/><path d="M-35.422 411.079c-.856 0-1.553.697-1.553 1.553s.697 1.553 1.553 1.553 1.553-.697 1.553-1.553-.696-1.553-1.553-1.553zM-8.967 411.079c-.856 0-1.553.697-1.553 1.553s.697 1.553 1.553 1.553 1.553-.697 1.553-1.553-.696-1.553-1.553-1.553zM-29.76 408.624c0 .415.337.752.752.752h11.223a.752.752 0 0 0 0-1.504h-11.223a.752.752 0 0 0-.752.752zM-46.645 406.169h9.62a.752.752 0 1 0 0-1.504h-9.62a.752.752 0 1 0 0 1.504zM-37.025 394.945a.752.752 0 1 0 0-1.504h-3.207a.752.752 0 0 0-.752.752v6.413a.752.752 0 0 0 1.504 0v-2.455h1.653a.752.752 0 0 0 0-1.504h-1.653v-1.704h2.455v.002zM-29.86 396.198a2.759 2.759 0 0 0-2.756-2.756h-2.004a.752.752 0 0 0-.752.752v6.413a.752.752 0 0 0 1.504 0v-1.653h1.251l1.38 2.07a.752.752 0 1 0 1.25-.833l-1.124-1.686a2.755 2.755 0 0 0 1.251-2.307zm-4.008-1.253h1.253c.691 0 1.253.562 1.253 1.253s-.562 1.253-1.253 1.253h-1.253v-2.506zM-25 394.945a.752.752 0 1 0 0-1.504h-3.207a.752.752 0 0 0-.752.752v6.413c0 .415.337.752.752.752H-25a.752.752 0 1 0 0-1.504h-2.455v-1.706c.017.001.033.003.05.003h1.603a.752.752 0 0 0 0-1.504h-1.603a.42.42 0 0 0-.05.003v-1.706H-25v.001zM-19.388 394.945a.752.752 0 1 0 0-1.504h-3.207a.752.752 0 0 0-.752.752v6.413c0 .415.337.752.752.752h3.207a.752.752 0 1 0 0-1.504h-2.455v-1.704h.852a.752.752 0 0 0 0-1.504h-.852v-1.704h2.455v.003z"/></symbol><symbol viewBox="-49 373 48 48" id="fi-payment-security-48" xmlns="http://www.w3.org/2000/svg"><path d="M-18.987 407.362h-27.49a.914.914 0 0 1-.913-.913v-25.772c0-.503.409-.913.913-.913H-6.96c.503 0 .913.409.913.913v11.168a.805.805 0 0 0 1.61 0v-11.168a2.526 2.526 0 0 0-2.523-2.523h-39.517A2.526 2.526 0 0 0-49 380.677v25.772a2.526 2.526 0 0 0 2.523 2.523h27.49a.805.805 0 0 0 0-1.61z"/><path d="M-33.644 390.987v-5.154c0-.918-.747-1.664-1.664-1.664h-6.872c-.918 0-1.664.747-1.664 1.664v5.154c0 .918.747 1.664 1.664 1.664h6.872c.917 0 1.664-.747 1.664-1.664zm-1.611-5.155v5.154c0 .03-.024.054-.054.054h-3.49v-1.826h.913a.805.805 0 0 0 0-1.61h-.913v-1.826h3.49c.03.001.054.025.054.054zm-6.98 5.155v-5.154c0-.03.024-.054.054-.054h1.772v5.262h-1.772a.055.055 0 0 1-.054-.054zM-16.837 384.085a4.667 4.667 0 0 0-2.579-.776c-2.576 0-4.671 2.095-4.671 4.671s2.095 4.671 4.671 4.671c.951 0 1.837-.287 2.576-.777a4.672 4.672 0 0 0 2.578.777c2.576 0 4.671-2.095 4.671-4.671s-2.095-4.671-4.671-4.671c-.951 0-1.836.286-2.575.776zm-5.64 3.895a3.063 3.063 0 0 1 4.431-2.735 4.644 4.644 0 0 0-.888 2.735c0 .993.316 1.947.886 2.736a3.043 3.043 0 0 1-1.37.325 3.065 3.065 0 0 1-3.059-3.061zm11.276 0a3.063 3.063 0 0 1-4.431 2.735c.558-.77.888-1.714.888-2.735a.805.805 0 0 0-1.61 0c0 .607-.178 1.172-.484 1.648a3.053 3.053 0 0 1-.483-1.648c0-1.688 1.373-3.06 3.06-3.06s3.06 1.372 3.06 3.06zM-43.04 397.054a.805.805 0 0 0 0 1.61h6.872a.805.805 0 0 0 0-1.61h-6.872zM-18.128 402.208H-43.04a.805.805 0 0 0 0 1.61h24.913a.805.805 0 1 0-.001-1.61zM-32.732 397.054a.805.805 0 0 0 0 1.61h6.872a.805.805 0 0 0 0-1.61h-6.872zM-17.268 397.054h-5.154a.805.805 0 0 0 0 1.61h5.154a.805.805 0 0 0 0-1.61zM-2.718 403.2v-3.622c0-3.286-2.674-5.96-5.96-5.96s-5.96 2.673-5.96 5.96v3.622a2.527 2.527 0 0 0-1.718 2.391v7.732a2.526 2.526 0 0 0 2.523 2.523h10.309a2.526 2.526 0 0 0 2.523-2.523v-7.732a2.526 2.526 0 0 0-1.717-2.391zm-5.96-7.972a4.354 4.354 0 0 1 4.349 4.349v3.49h-8.698v-3.49a4.354 4.354 0 0 1 4.349-4.349zm6.067 18.094a.914.914 0 0 1-.913.913h-10.309a.914.914 0 0 1-.913-.913v-7.732c0-.503.409-.913.913-.913h10.309c.503 0 .913.409.913.913v7.732z"/><path d="M-8.678 406.503a2.096 2.096 0 0 0-2.094 2.094c0 .869.533 1.616 1.289 1.932v1.074a.805.805 0 0 0 1.61 0v-1.074a2.097 2.097 0 0 0 1.289-1.932 2.097 2.097 0 0 0-2.094-2.094zm0 1.611a.484.484 0 0 1 0 .966.484.484 0 0 1 0-.966z"/></symbol><symbol viewBox="-49 373 48 48" id="fi-tag-48" xmlns="http://www.w3.org/2000/svg"><path d="M-1 376.269a3.236 3.236 0 0 0-.952-2.317A3.224 3.224 0 0 0-4.269 373a3.278 3.278 0 0 0-2.317.967c-.262.262-.74.829-1.001 1.144a.777.777 0 1 0 1.197.993c.409-.493.747-.881.904-1.038a1.73 1.73 0 0 1 1.223-.512h.007c.456 0 .883.176 1.203.497.322.322.499.752.497 1.211a1.73 1.73 0 0 1-.512 1.223c-.293.294-1.302 1.094-2.748 2.104a4.927 4.927 0 0 0-4.253-2.447h-11.387a5.72 5.72 0 0 0-4.069 1.685l-22.762 22.762a2.421 2.421 0 0 0-.714 1.723c0 .651.254 1.263.714 1.723l15.25 15.25c.46.46 1.072.714 1.723.714s1.263-.254 1.723-.714l22.762-22.762a5.716 5.716 0 0 0 1.685-4.069v-11.387c0-.336-.034-.664-.099-.982 1.645-1.132 2.853-2.079 3.275-2.501A3.267 3.267 0 0 0-1 376.269zm-5.698 5.799v11.387a4.17 4.17 0 0 1-1.23 2.969l-22.762 22.762a.881.881 0 0 1-1.246 0l-15.25-15.25a.881.881 0 0 1 0-1.246l22.762-22.762a4.173 4.173 0 0 1 2.969-1.23h11.387c1.279 0 2.393.716 2.964 1.768a63.534 63.534 0 0 1-3.038 1.891 3.27 3.27 0 0 0-4.724-.11 3.27 3.27 0 0 0 0 4.619 3.255 3.255 0 0 0 2.31.955c.836 0 1.673-.318 2.31-.955a3.266 3.266 0 0 0 .847-3.142 65.078 65.078 0 0 0 2.701-1.663v.007zm-6.553 2.838a.777.777 0 0 0 1.044.345c.456-.229.91-.468 1.36-.712a1.71 1.71 0 1 1-2.919-1.193 1.708 1.708 0 0 1 2.198-.185c-.44.239-.887.474-1.337.7a.778.778 0 0 0-.346 1.045z"/><path d="M-32.679 398.814a.777.777 0 1 0-1.1 1.1l2.383 2.383-3.006 3.006-2.383-2.383a.777.777 0 1 0-1.1 1.1l5.865 5.865a.775.775 0 0 0 1.1 0 .777.777 0 0 0 0-1.1l-2.383-2.383 3.006-3.006 2.383 2.383a.775.775 0 0 0 1.1 0 .777.777 0 0 0 0-1.1l-5.865-5.865zM-24.174 394.415a3.685 3.685 0 0 0-5.205 0 3.685 3.685 0 0 0 0 5.205l1.76 1.76c.718.718 1.66 1.076 2.603 1.076s1.885-.359 2.603-1.076a3.685 3.685 0 0 0 0-5.205l-1.761-1.76zm.66 5.865a2.128 2.128 0 0 1-3.006 0l-1.76-1.76a2.128 2.128 0 0 1 0-3.006c.414-.414.959-.622 1.503-.622s1.089.207 1.503.622l1.76 1.76a2.13 2.13 0 0 1 0 3.006zM-21.572 388.806l1.796-1.796a.777.777 0 1 0-1.1-1.1l-4.692 4.692a.777.777 0 1 0 1.1 1.1l1.796-1.796 5.315 5.315a.775.775 0 0 0 1.1 0 .777.777 0 0 0 0-1.1l-5.315-5.315z"/></symbol><symbol viewBox="0 0 16 16" id="filters-16" xmlns="http://www.w3.org/2000/svg"><path d="M7 14v-2h9v2H7zm7-7h2v2h-2V7zm-1.5-1c.3 0 .5.2.5.5v3c0 .3-.2.5-.5.5h-2c-.3 0-.5-.2-.5-.5v-3c0-.3.2-.5.5-.5h2zM7 2h9v2H7V2zM5.5 5h-2c-.3 0-.5-.2-.5-.5v-3c0-.3.2-.5.5-.5h2c.3 0 .5.2.5.5v3c0 .3-.2.5-.5.5zM0 2h2v2H0V2zm9 7H0V7h9v2zm-7 5H0v-2h2v2zm1.5-3h2c.3 0 .5.2.5.5v3c0 .3-.2.5-.5.5h-2c-.3 0-.5-.2-.5-.5v-3c0-.3.2-.5.5-.5z"/></symbol><symbol viewBox="0 0 20 20" id="heart-20" xmlns="http://www.w3.org/2000/svg"><path d="M14 3c2.2 0 4 1.8 4 4 0 4-5.2 10-8 10S2 11 2 7c0-2.2 1.8-4 4-4 1 0 1.9.4 2.7 1L10 5.2 11.3 4c.8-.6 1.7-1 2.7-1m0-2c-1.5 0-2.9.6-4 1.5C8.9 1.6 7.5 1 6 1 2.7 1 0 3.7 0 7c0 5 6 12 10 12s10-7 10-12c0-3.3-2.7-6-6-6z"/></symbol><symbol viewBox="0 0 16 16" id="layout-grid-16x16" xmlns="http://www.w3.org/2000/svg"><path d="M15.2 16H9.8a.8.8 0 0 1-.8-.8V9.8a.8.8 0 0 1 .8-.8h5.4a.8.8 0 0 1 .8.8v5.4a.8.8 0 0 1-.8.8zm0-9H9.8a.8.8 0 0 1-.8-.8V.8a.8.8 0 0 1 .8-.8h5.4a.8.8 0 0 1 .8.8v5.4a.8.8 0 0 1-.8.8zm-9 9H.8a.8.8 0 0 1-.8-.8V9.8A.8.8 0 0 1 .8 9h5.4a.8.8 0 0 1 .8.8v5.4a.8.8 0 0 1-.8.8zm0-9H.8a.8.8 0 0 1-.8-.8V.8A.8.8 0 0 1 .8 0h5.4a.8.8 0 0 1 .8.8v5.4a.8.8 0 0 1-.8.8z"/></symbol><symbol viewBox="0 0 16 16" id="layout-grid-with-details-16x16" xmlns="http://www.w3.org/2000/svg"><path d="M16 .8v14.4c0 .4-.4.8-.8.8H9.8c-.4 0-.8-.4-.8-.8V.8c0-.4.4-.8.8-.8h5.4c.4 0 .8.4.8.8zm-9 0v14.4c0 .4-.4.8-.8.8H.8c-.4 0-.8-.4-.8-.8V.8C0 .4.4 0 .8 0h5.4c.4 0 .8.4.8.8z"/></symbol><symbol viewBox="0 0 16 16" id="layout-list-16x16" xmlns="http://www.w3.org/2000/svg"><path d="M15.2 16H.8a.8.8 0 0 1-.8-.8V9.8A.8.8 0 0 1 .8 9h14.4a.8.8 0 0 1 .8.8v5.4a.8.8 0 0 1-.8.8zm0-9H.8a.8.8 0 0 1-.8-.8V.8A.8.8 0 0 1 .8 0h14.4a.8.8 0 0 1 .8.8v5.4a.8.8 0 0 1-.8.8z"/></symbol><symbol viewBox="0 0 18 14" id="menu-18x14" xmlns="http://www.w3.org/2000/svg"><path d="M0 8V6h18v2H0zm0-8h18v2H0V0zm14 14H0v-2h14v2z"/></symbol><symbol viewBox="0 0 20 20" id="person-20" xmlns="http://www.w3.org/2000/svg"><path d="M13.7 10.7C15.1 9.6 16 7.9 16 6c0-3.3-2.7-6-6-6S4 2.7 4 6c0 1.9.9 3.6 2.3 4.7C2.6 12.2 0 15.8 0 20h2c0-4.4 3.6-8 8-8s8 3.6 8 8h2c0-4.2-2.6-7.8-6.3-9.3zM6 6c0-2.2 1.8-4 4-4s4 1.8 4 4-1.8 4-4 4-4-1.8-4-4z"/></symbol><symbol viewBox="0 0 16 16" id="quickview-16" xmlns="http://www.w3.org/2000/svg"><path d="M14 15h-4v-2h3v-3h2v4c0 .6-.4 1-1 1zM13 3h-3V1h4c.6 0 1 .4 1 1v4h-2V3zM6 3H3v3H1V2c0-.6.4-1 1-1h4v2zM3 13h3v2H2c-.6 0-1-.4-1-1v-4h2v3z"/></symbol><symbol viewBox="0 0 20 20" id="search-20" xmlns="http://www.w3.org/2000/svg"><path d="M19.2 17.8s-.2.5-.5.8c-.4.4-.9.6-.9.6s-.9.7-2.8-1.6c-1.1-1.4-2.2-2.8-3.1-3.9-1 .8-2.4 1.3-3.9 1.3-3.9 0-7-3.1-7-7s3.1-7 7-7 7 3.1 7 7c0 1.5-.5 2.9-1.3 4 1.1.8 2.5 2 4 3.1 2.3 1.7 1.5 2.7 1.5 2.7zM8 3C5.2 3 3 5.2 3 8s2.2 5 5 5 5-2.2 5-5-2.2-5-5-5z"/></symbol><symbol viewBox="0 0 13 12" id="star-normal" xmlns="http://www.w3.org/2000/svg"><path d="M7 .3L9 4h3.5c.4.1.6.8.3 1.1L10 7.4l1 4c.1.4-.4.8-.8.6l-3.7-2-3.7 1.9c-.4.2-.9-.1-.8-.6l1-4L.2 5.1C-.2 4.8 0 4.1.5 4H4L6 .3c.2-.4.8-.4 1 0z"/></symbol><symbol viewBox="0 0 13 12" id="star-normal-stroke" xmlns="http://www.w3.org/2000/svg"><path d="M6.5 1.5l1.6 3 .3.5h3l-2 1.6-.5.4.1.6.7 3L7 9.1l-.5-.2-.5.2-2.8 1.5.7-3 .2-.6-.5-.4-2-1.6h3l.3-.5 1.6-3m0-1.5c-.2 0-.4.1-.5.3L4 4H.5c-.5.1-.7.8-.3 1.1L3 7.4l-1 4c-.1.3.2.6.5.6.1 0 .2 0 .3-.1L6.5 10l3.7 1.9c.1 0 .2.1.3.1.3 0 .6-.3.5-.6l-1-4 2.8-2.3c.3-.3.1-1-.3-1.1H9L7 .3C6.9.1 6.7 0 6.5 0z"/></symbol><symbol viewBox="0 0 16 16" id="wishlist-16" xmlns="http://www.w3.org/2000/svg"><path d="M13.9 8.4l-5.4 5.4c-.3.3-.7.3-1 0L2.1 8.4C.6 6.9.6 4.6 2.1 3.1 2.8 2.4 3.8 2 4.8 2s1.9.4 2.6 1.1l.6.6.6-.6c.7-.7 1.7-1.1 2.7-1.1 1 0 1.9.4 2.6 1.1 1.5 1.5 1.5 3.8 0 5.3z"/></symbol><symbol viewBox="0 0 24 24" id="zoom-in-24" xmlns="http://www.w3.org/2000/svg"><path d="M15 18c-2 0-3.8-.6-5.2-1.7-1 1.3-2.1 2.8-3.5 4.6-2.2 2.8-3.4 1.9-3.4 1.9s-.6-.3-1.1-.7c-.4-.4-.7-1-.7-1S.2 19.9 3 17.8c1.8-1.4 3.3-2.5 4.6-3.5C6.6 12.8 6 11 6 9c0-5 4-9 9-9s9 4 9 9-4 9-9 9zm0-16c-3.9 0-7 3.1-7 7s3.1 7 7 7 7-3.1 7-7-3.1-7-7-7zm1 11h-2v-3h-3V8h3V5h2v3h3v2h-3v3z"/></symbol></svg>