<?xml version="1.0" encoding="utf-8"?>
<!-- Generator: Adobe Illustrator 22.1.0, SVG Export Plug-In . SVG Version: 6.00 Build 0)  -->
<svg version="1.1" id="Layer_1" xmlns="http://www.w3.org/2000/svg" xmlns:xlink="http://www.w3.org/1999/xlink" x="0px" y="0px"
	 viewBox="0 0 16 16" style="enable-background:new 0 0 16 16;" xml:space="preserve">
<g>
	<path d="M9,15H7c-0.6,0-1-0.4-1-1V2c0-0.6,0.4-1,1-1h2c0.6,0,1,0.4,1,1v12C10,14.6,9.6,15,9,15z"/>
</g>
<path d="M1,9h2c0.6,0,1,0.4,1,1v4c0,0.6-0.4,1-1,1H1c-0.6,0-1-0.4-1-1v-4C0,9.4,0.4,9,1,9z"/>
<path d="M15,5h-2c-0.6,0-1,0.4-1,1v8c0,0.6,0.4,1,1,1h2c0.6,0,1-0.4,1-1V6C16,5.4,15.6,5,15,5z"/>
</svg>
