<?xml version="1.0" encoding="iso-8859-1"?>
<!-- Generator: Adobe Illustrator 22.1.0, SVG Export Plug-In . SVG Version: 6.00 Build 0)  -->
<svg version="1.1" id="Layer_1" xmlns="http://www.w3.org/2000/svg" xmlns:xlink="http://www.w3.org/1999/xlink" x="0px" y="0px"
	 viewBox="0 0 48 48" style="enable-background:new 0 0 48 48;" xml:space="preserve">
<g>
	<path d="M46.218,18.168h-0.262v-0.869c0-1.175-1.211-1.766-2.453-1.766c-0.521,0-0.985,0.094-1.366,0.263
		c0.015-0.028,2.29-4.591,2.303-4.62c0.968-2.263-3.041-4.024-4.372-1.449l-5.184,10.166c-0.35,0.648-0.364,1.449,0.033,2.081
		c-0.206-0.107-0.432-0.166-0.668-0.166h-4.879c1.555-1.597,6.638-3.535,6.638-8.011c0-1.599-0.676-3.02-1.903-4.002
		c-1.088-0.87-2.52-1.35-4.033-1.35c-2.802,0-5.779,1.758-5.779,5.015c0,2.195,1.426,2.522,2.275,2.522
		c1.653,0,2.545-1.022,2.545-1.983c0-0.485,0.117-0.981,0.981-0.981c0.906,0,1.003,0.623,1.003,0.891
		c0,2.284-7.074,4.474-7.074,8.399v2.178c0,1.147,1.319,1.781,2.23,1.781h7.995c1.426,0,2.332-2.195,1.348-3.669
		c0.265,0.137,0.569,0.21,0.898,0.21h4.552v1.678c0,1.049,1.01,1.781,2.455,1.781s2.455-0.733,2.455-1.781v-1.678h0.262
		c1.02,0,1.781-1.225,1.781-2.32C48,19.144,47.251,18.168,46.218,18.168L46.218,18.168z M34.241,24.861h-7.987
		c-0.389,0-0.802-0.258-0.824-0.375v-2.179c0-3.056,7.074-5.046,7.074-8.399c0-1.107-0.754-2.298-2.41-2.298
		c-1.473,0-2.388,0.915-2.388,2.388c0,0.236-0.405,0.577-1.138,0.577c-0.492,0-0.869-0.082-0.869-1.116
		c0-2.344,2.253-3.609,4.373-3.609c2.251,0,4.53,1.355,4.53,3.946c0,4.526-6.94,5.826-6.94,8.511v0.202
		c0,0.389,0.315,0.703,0.703,0.703l5.882,0c0.091,0.015,0.354,0.314,0.354,0.802C34.601,24.494,34.349,24.825,34.241,24.861
		L34.241,24.861z M46.194,21.402h-0.941c-0.388,0-0.703,0.315-0.703,0.703v2.381c0,0.151-0.44,0.375-1.048,0.375
		c-0.608,0-1.049-0.224-1.049-0.375v-2.381c0-0.389-0.315-0.703-0.703-0.703h-5.255c-0.518,0-0.545-0.528-0.371-0.846
		c0.003-0.006,0.006-0.012,0.009-0.018l5.186-10.17c0.533-1.031,1.883-0.238,1.884,0.097c-0.011,0.087,0.038-0.035-4.014,8.092
		c-0.233,0.468,0.109,1.017,0.629,1.017h1.932c0.388,0,0.703-0.315,0.703-0.703v-1.572c0-0.123,0.409-0.36,1.051-0.36
		c0.618,0,1.046,0.223,1.046,0.36v1.572c0,0.389,0.315,0.703,0.703,0.703h0.966c0.196,0,0.375,0.435,0.375,0.914
		C46.593,20.951,46.324,21.338,46.194,21.402L46.194,21.402z M41.046,17.984v0.184h-0.092L41.046,17.984z M41.046,17.984"/>
	<g>
		<path d="M36.976,36.602c2.428-2.291,4.227-5.18,5.202-8.354c0.114-0.371-0.094-0.764-0.465-0.879
			c-0.371-0.114-0.765,0.095-0.879,0.466c-0.903,2.941-2.571,5.62-4.823,7.744c-0.282,0.267-0.295,0.712-0.029,0.994
			C36.249,36.856,36.694,36.869,36.976,36.602L36.976,36.602z M36.976,36.602"/>
		<path d="M35.099,7.86c0.226-0.316,0.152-0.756-0.164-0.981C29.684,3.131,23.098,2.38,17.381,4.38
			c-0.367,0.128-0.559,0.53-0.431,0.896c0.128,0.366,0.53,0.56,0.896,0.431c5.23-1.83,11.346-1.199,16.272,2.316
			C34.434,8.249,34.873,8.176,35.099,7.86L35.099,7.86z M35.099,7.86"/>
		<path d="M25.247,43.573c-0.857-0.491-1.854-0.639-2.807-0.416c-0.525,0.123-1.064,0.207-1.602,0.251
			c-0.387,0.032-0.675,0.371-0.643,0.758c0.032,0.387,0.37,0.675,0.758,0.644c0.606-0.05,1.214-0.145,1.807-0.284
			c0.606-0.141,1.241-0.047,1.788,0.267c1.583,0.908,3.528,0.884,5.076-0.064c3.605-2.207,3.212-1.964,3.359-2.061
			c2.24-1.464,2.922-4.464,1.519-6.755l-2.538-4.145c-1.436-2.345-4.508-3.068-6.835-1.644l-3.235,1.981
			c-1.472,0.901-2.358,2.477-2.371,4.214c-0.001,0.153-0.145,0.269-0.293,0.237c-1.228-0.265-2.372-0.847-3.306-1.683
			c-1.403-1.255-2.633-2.596-3.656-3.984c-0.23-0.313-0.67-0.379-0.983-0.149c-0.313,0.23-0.379,0.671-0.149,0.983
			c1.08,1.465,2.375,2.878,3.85,4.197c1.116,0.999,2.481,1.694,3.947,2.01c1.02,0.22,1.988-0.557,1.996-1.602
			c0.009-1.248,0.644-2.379,1.699-3.025l2.742-1.679l6.261,10.224l-2.742,1.679C27.78,44.209,26.384,44.225,25.247,43.573
			L25.247,43.573z M26.622,30.977c1.54-0.495,3.282,0.119,4.142,1.525l2.538,4.145c0.865,1.413,0.611,3.242-0.524,4.383
			L26.622,30.977z M26.622,30.977"/>
		<path d="M0.403,23.192c0.998,3.783,2.422,7.199,4.232,10.155c1.81,2.956,4.206,5.777,7.121,8.386
			c1.613,1.443,3.59,2.435,5.717,2.868c0.377,0.078,0.751-0.165,0.83-0.549c0.078-0.381-0.168-0.752-0.549-0.829
			c-1.883-0.383-3.632-1.261-5.06-2.538c-2.813-2.517-5.121-5.233-6.859-8.072c-1.739-2.839-3.108-6.13-4.071-9.78
			c-0.902-3.419-0.07-7.084,2.228-9.803c0.632-0.748,0.954-1.704,0.906-2.69C4.834,9.03,5.483,7.795,6.592,7.116l2.742-1.679
			l6.261,10.224l-2.742,1.679c-1.043,0.639-2.327,0.696-3.436,0.153c-0.93-0.455-2.048,0.053-2.319,1.052
			c-0.396,1.462-0.401,3.008-0.015,4.47c0.558,2.115,1.315,4.081,2.249,5.843c0.182,0.343,0.608,0.474,0.951,0.292
			c0.343-0.182,0.474-0.608,0.292-0.951c-0.884-1.667-1.601-3.532-2.132-5.543c-0.323-1.225-0.319-2.519,0.012-3.744
			c0.04-0.147,0.206-0.223,0.342-0.156c1.543,0.756,3.334,0.675,4.789-0.216l3.235-1.981c2.322-1.422,3.082-4.485,1.643-6.835
			l-2.538-4.145c-1.44-2.351-4.516-3.063-6.835-1.643L5.858,5.917C4.31,6.864,3.404,8.585,3.493,10.409
			c0.031,0.63-0.174,1.239-0.575,1.714C0.324,15.192-0.616,19.33,0.403,23.192L0.403,23.192z M14.728,6.314l2.538,4.145
			c0.865,1.414,0.61,3.243-0.524,4.383L10.586,4.788C12.12,4.295,13.864,4.903,14.728,6.314L14.728,6.314z M14.728,6.314"/>
	</g>
</g>
</svg>
