<?xml version="1.0" encoding="utf-8"?>
<!-- Generator: Adobe Illustrator 22.1.0, SVG Export Plug-In . SVG Version: 6.00 Build 0)  -->
<svg version="1.1" id="Layer_1" xmlns="http://www.w3.org/2000/svg" xmlns:xlink="http://www.w3.org/1999/xlink" x="0px" y="0px"
	 viewBox="0 0 20 20" style="enable-background:new 0 0 20 20;" xml:space="preserve">
<path d="M14,3c2.2,0,4,1.8,4,4c0,4-5.2,10-8,10S2,11,2,7c0-2.2,1.8-4,4-4c1,0,1.9,0.4,2.7,1L10,5.2L11.3,4C12.1,3.4,13,3,14,3 M14,1
	c-1.5,0-2.9,0.6-4,1.5C8.9,1.6,7.5,1,6,1C2.7,1,0,3.7,0,7c0,5,6,12,10,12s10-7,10-12C20,3.7,17.3,1,14,1L14,1z"/>
</svg>
