<?xml version="1.0" encoding="utf-8"?>
<!-- Generator: Adobe Illustrator 22.1.0, SVG Export Plug-In . SVG Version: 6.00 Build 0)  -->
<svg version="1.1" id="Layer_1" xmlns="http://www.w3.org/2000/svg" xmlns:xlink="http://www.w3.org/1999/xlink" x="0px" y="0px"
	 viewBox="0 0 20 20" style="enable-background:new 0 0 20 20;" xml:space="preserve">
<path d="M19.2,17.8c0,0-0.2,0.5-0.5,0.8c-0.4,0.4-0.9,0.6-0.9,0.6s-0.9,0.7-2.8-1.6c-1.1-1.4-2.2-2.8-3.1-3.9C10.9,14.5,9.5,15,8,15
	c-3.9,0-7-3.1-7-7s3.1-7,7-7s7,3.1,7,7c0,1.5-0.5,2.9-1.3,4c1.1,0.8,2.5,2,4,3.1C20,16.8,19.2,17.8,19.2,17.8z M8,3C5.2,3,3,5.2,3,8
	c0,2.8,2.2,5,5,5c2.8,0,5-2.2,5-5C13,5.2,10.8,3,8,3z"/>
</svg>
