<svg xmlns="http://www.w3.org/2000/svg" width="16" height="16">
<path d="M14.2,10.3c-0.1,0.4-0.5,0.7-0.9,0.7H4.8c-0.5,0-0.9-0.3-1-0.8L2.2,4C2.1,3.4,1.6,3,1,3H0.4C0.2,3,0,2.8,0,2.6V1.4
	C0,1.2,0.2,1,0.4,1h1.4c1,0,1.9,0.7,2.1,1.7l1.5,6.1C5.5,8.9,5.7,9,5.8,9h6.5c0.1,0,0.2-0.1,0.3-0.2l1.1-3.4C13.8,5.2,13.7,5,13.5,5
	H7.4C7.2,5,7,4.8,7,4.6V3.4C7,3.2,7.2,3,7.4,3H15c0.6,0,1,0.4,1,1v1L14.2,10.3z M4.5,13C5.3,13,6,13.7,6,14.5C6,15.3,5.3,16,4.5,16
	S3,15.3,3,14.5C3,13.7,3.7,13,4.5,13z M11.5,13c0.8,0,1.5,0.7,1.5,1.5c0,0.8-0.7,1.5-1.5,1.5S10,15.3,10,14.5
	C10,13.7,10.7,13,11.5,13z"/>
</svg>
