<?xml version="1.0" encoding="utf-8"?>
<!-- Generator: Adobe Illustrator 22.1.0, SVG Export Plug-In . SVG Version: 6.00 Build 0)  -->
<svg version="1.1" id="Layer_1" xmlns="http://www.w3.org/2000/svg" xmlns:xlink="http://www.w3.org/1999/xlink" x="0px" y="0px"
	 viewBox="0 0 13 12" style="enable-background:new 0 0 13 12;" xml:space="preserve">
<path d="M6.5,1.5l1.6,3L8.4,5H9h2.4l-2,1.6L8.9,7L9,7.6l0.7,3L7,9.1L6.5,8.9L6,9.1l-2.8,1.5l0.7-3L4.1,7L3.6,6.6L1.6,5
	H4h0.6l0.3-0.5L6.5,1.5 M6.5,0C6.3,0,6.1,0.1,6,0.3L4,4H0.5C0,4.1-0.2,4.8,0.2,5.1L3,7.4l-1,4C1.9,11.7,2.2,12,2.5,12
	c0.1,0,0.2,0,0.3-0.1L6.5,10l3.7,1.9c0.1,0,0.2,0.1,0.3,0.1c0.3,0,0.6-0.3,0.5-0.6l-1-4l2.8-2.3c0.3-0.3,0.1-1-0.3-1.1H9L7,0.3
	C6.9,0.1,6.7,0,6.5,0L6.5,0z"/>
</svg>
